<?xml version="1.0" encoding="utf-8"?>
<!-- Generator: Adobe Illustrator 24.0.0, SVG Export Plug-In . SVG Version: 6.00 Build 0)  -->
<svg version="1.1" id="Layer_1" xmlns="http://www.w3.org/2000/svg" xmlns:xlink="http://www.w3.org/1999/xlink" x="0px" y="0px"
	 viewBox="0 0 300 300" style="enable-background:new 0 0 300 300;" xml:space="preserve">
<style type="text/css">
	.st0{fill:#393F37;}
</style>
<g>
	<g>
		<path class="st0" d="M174.88,157.18l0.12,0.07v-0.14L174.88,157.18z M262.38,63.42l-74.91-43.25c-7.72-4.45-17.22-4.45-24.94,0
			l-25.04,14.46c-7.71,4.45-12.47,12.69-12.47,21.59v115.54c0,19.2-20.78,31.19-37.4,21.6l-0.1-0.06
			c-7.71-4.45-12.47-12.68-12.47-21.59l0-57.83c0-19.19-20.78-31.19-37.4-21.59l-0.1,0.06c-7.72,4.45-12.47,12.69-12.47,21.6v86.62
			c0,8.91,4.75,17.14,12.47,21.59l99.9,57.68c7.71,4.45,17.21,4.45,24.92,0.01l100.08-57.69c7.73-4.46,12.49-12.7,12.48-21.62
			L274.85,85C274.84,76.09,270.09,67.87,262.38,63.42z M212.48,193.31l-0.08,0.05c-16.62,9.6-37.4-2.4-37.4-21.6v-57.88
			c0-19.2,20.78-31.19,37.41-21.59l0,0c7.7,4.45,12.45,12.66,12.47,21.56l0.08,57.84C224.96,180.6,220.21,188.85,212.48,193.31z
			 M174.88,157.18l0.12,0.07v-0.14L174.88,157.18z"/>
	</g>
</g>
</svg>
